<?xml version="1.0" encoding="UTF-8"?>
<svg width="19px" height="21px" viewBox="0 0 19 21" version="1.1" xmlns="http://www.w3.org/2000/svg" xmlns:xlink="http://www.w3.org/1999/xlink">
    <!-- Generator: Sketch 52.3 (67297) - http://www.bohemiancoding.com/sketch -->
    <title>bell-noti</title>
    <desc>Created with Sketch.</desc>
    <g id="Payment-new" stroke="none" stroke-width="1" fill="none" fill-rule="evenodd">
        <g id="homepage" transform="translate(-1556.000000, -31.000000)" fill="#FFFFFF">
            <g id="dashboard" transform="translate(-1.000000, 0.000000)">
                <g id="header">
                    <g id="notification-icon" transform="translate(1557.000000, 30.000000)">
                        <path d="M17.943101,15.5114814 C18.3144455,15.9383233 18.607232,16.3184736 18.8214692,16.6519438 C19.0357064,16.985414 19.0571298,17.3188792 18.88574,17.6523494 C18.7143503,17.9858195 18.4358461,18.1792294 18.0502191,18.2325846 C17.6645921,18.2859398 17.3646645,18.312617 17.1504273,18.312617 L13.1442116,18.312617 C13.1442116,19.2596724 12.7871549,20.0666581 12.0730309,20.7335985 C11.3589069,21.4005389 10.4948298,21.7340041 9.48077367,21.7340041 C8.46671756,21.7340041 7.60264045,21.4005389 6.88851643,20.7335985 C6.17439241,20.0666581 5.81733575,19.2596724 5.81733575,18.312617 L1.89681447,18.312617 C1.56831742,18.312617 1.2291136,18.2759359 0.879192829,18.2025724 C0.529272058,18.129209 0.275761833,17.9458031 0.118654548,17.6523494 C-0.0527352176,17.3188792 -0.0384529514,16.97541 0.161501775,16.6219316 C0.361456501,16.2684532 0.632819559,15.878299 0.97559909,15.4514571 C1.36122606,14.9845988 1.78255292,14.4543892 2.23959229,13.8608123 C2.69663166,13.2672353 2.92514792,12.6503247 2.92514792,12.010062 L2.92514792,7.82836669 C2.92514792,6.92132778 3.09296455,6.07099155 3.42860284,5.2773325 C3.76424113,4.48367345 4.22484422,3.79006586 4.81042592,3.19648892 C5.39600761,2.60291198 6.08869753,2.13606072 6.88851643,1.79592112 C7.68833534,1.45578153 8.54527131,1.28571429 9.45935006,1.28571429 C10.3877113,1.28571429 11.2517884,1.45578153 12.0516073,1.79592112 C12.8514262,2.13606072 13.5476867,2.60291198 14.1404096,3.19648892 C14.7331326,3.79006586 15.1973062,4.48367345 15.5329445,5.2773325 C15.8685828,6.07099155 16.0363994,6.92132778 16.0363994,7.82836669 L16.0363994,12.010062 C16.0363994,12.6636635 16.254204,13.2972474 16.6898196,13.9108325 C17.1254353,14.5244177 17.5431916,15.057962 17.943101,15.5114814 Z M9.48077367,20.3934606 C10.0949203,20.3934606 10.6197936,20.1900468 11.0554093,19.7832132 C11.4910249,19.3763796 11.7088295,18.8861858 11.7088295,18.312617 L7.25271786,18.312617 C7.25271786,18.8861858 7.47052242,19.3763796 7.90613808,19.7832132 C8.34175373,20.1900468 8.86662701,20.3934606 9.48077367,20.3934606 Z M17.3003926,16.9520655 C17.2289802,16.8586938 17.1504278,16.7619889 17.0647329,16.6619478 C16.979038,16.5619068 16.8933444,16.4652019 16.8076495,16.3718302 C16.3363277,15.8382779 15.84716,15.2013594 15.340132,14.4610556 C14.8331039,13.7207518 14.5795937,12.9037621 14.5795937,12.010062 L14.5795937,7.82836669 C14.5795937,7.10807108 14.4474827,6.4344714 14.1832568,5.80754745 C13.919031,5.18062349 13.5584037,4.63374058 13.1013644,4.16688232 C12.644325,3.70002405 12.1051694,3.32987769 11.4838815,3.05643214 C10.8625936,2.78298658 10.1877566,2.64626586 9.45935006,2.64626586 C8.74522604,2.64626586 8.07753009,2.78298658 7.45624219,3.05643214 C6.83495429,3.32987769 6.29579874,3.70002405 5.83875937,4.16688232 C5.38171999,4.63374058 5.02466334,5.18062349 4.76757869,5.80754745 C4.51049404,6.4344714 4.38195365,7.10807108 4.38195365,7.82836669 L4.38195365,12.010062 C4.38195365,12.8770845 4.11416115,13.6740663 3.57856814,14.4010313 C3.04297512,15.1279963 2.56808977,15.7515762 2.15389784,16.2717897 C2.06820295,16.3785001 1.97893879,16.4918783 1.88610267,16.6119276 C1.79326654,16.7319768 1.71114351,16.845355 1.63973111,16.9520655 L17.3003926,16.9520655 Z" id="bell-noti"></path>
                    </g>
                </g>
            </g>
        </g>
    </g>
</svg>