<?xml version="1.0" encoding="UTF-8"?>
<svg width="19px" height="19px" viewBox="0 0 19 19" version="1.1" xmlns="http://www.w3.org/2000/svg" xmlns:xlink="http://www.w3.org/1999/xlink">
    <!-- Generator: Sketch 52.3 (67297) - http://www.bohemiancoding.com/sketch -->
    <title>Settings - simple-line-icons</title>
    <desc>Created with Sketch.</desc>
    <g id="Payment-new" stroke="none" stroke-width="1" fill="none" fill-rule="evenodd">
        <g id="homepage" transform="translate(-1620.000000, -31.000000)" fill="#FFFFFF">
            <g id="dashboard" transform="translate(-1.000000, 0.000000)">
                <g id="header">
                    <path d="M1638.8125,38.6610086 C1639.09701,38.7102362 1639.36605,38.8486868 1639.61963,39.0763645 C1639.87321,39.3040422 1640,39.58402 1640,39.9163064 L1640,41.0977631 C1640,41.4177426 1639.87321,41.6761836 1639.61963,41.8730941 C1639.36605,42.0700045 1639.09701,42.2053784 1638.8125,42.2792198 L1637.27246,42.6484251 C1637.21061,42.8330286 1637.14567,43.0083993 1637.07764,43.1745425 C1637.0096,43.3406857 1636.93229,43.5037497 1636.8457,43.6637395 L1637.66211,45.0297988 C1637.82292,45.2759369 1637.92187,45.5589914 1637.95898,45.8789709 C1637.99609,46.1989503 1637.89714,46.4758515 1637.66211,46.7096826 L1636.82715,47.5403944 C1636.59212,47.7742256 1636.30762,47.8819093 1635.97363,47.863449 C1635.63965,47.8449886 1635.34896,47.7557649 1635.10156,47.5957752 L1633.76562,46.7466032 C1633.59245,46.8327515 1633.41927,46.9127451 1633.24609,46.9865866 C1633.07292,47.060428 1632.88737,47.1281149 1632.68945,47.1896494 L1632.35547,48.7218511 C1632.30599,49.0049099 1632.16683,49.272581 1631.93799,49.5248725 C1631.70915,49.777164 1631.42774,49.9033079 1631.09375,49.9033079 L1629.90625,49.9033079 C1629.58463,49.9033079 1629.32487,49.777164 1629.12695,49.5248725 C1628.92904,49.272581 1628.79297,49.0049099 1628.71875,48.7218511 L1628.34766,47.2081097 C1628.14974,47.1465752 1627.95182,47.0758116 1627.75391,46.9958167 C1627.55599,46.9158218 1627.36426,46.8265981 1627.17871,46.7281429 L1625.80566,47.5957752 C1625.57064,47.7557649 1625.28304,47.8449886 1624.94287,47.863449 C1624.6027,47.8819093 1624.32129,47.7742256 1624.09863,47.5403944 L1623.24512,46.7096826 C1623.02246,46.4758515 1622.92969,46.1989503 1622.9668,45.8789709 C1623.00391,45.5589914 1623.09668,45.2759369 1623.24512,45.0297988 L1624.11719,43.5898984 C1624.04297,43.4422156 1623.97184,43.2914583 1623.90381,43.137622 C1623.83577,42.9837857 1623.77702,42.8207217 1623.72754,42.6484251 L1622.1875,42.2792198 C1621.90299,42.2053784 1621.63395,42.0700045 1621.38037,41.8730941 C1621.12679,41.6761836 1621,41.4177426 1621,41.0977631 L1621,39.9163064 C1621,39.58402 1621.12679,39.3040422 1621.38037,39.0763645 C1621.63395,38.8486868 1621.90299,38.7102362 1622.1875,38.6610086 L1623.70898,38.3287239 C1623.75846,38.1564272 1623.82031,37.9841332 1623.89453,37.8118365 C1623.96875,37.6395399 1624.04297,37.4733992 1624.11719,37.3134095 L1623.24512,35.8735091 C1623.09668,35.627371 1623.00391,35.3443165 1622.9668,35.024337 C1622.92969,34.7043576 1623.02246,34.4274564 1623.24512,34.1936253 L1624.09863,33.3629135 C1624.32129,33.1290823 1624.6027,33.0213986 1624.94287,33.0398589 C1625.28304,33.0583193 1625.57064,33.147543 1625.80566,33.3075327 L1627.17871,34.175165 C1627.36426,34.0767098 1627.5529,33.9874861 1627.74463,33.9074912 C1627.93636,33.8274963 1628.13118,33.7567327 1628.3291,33.6951982 L1628.71875,32.1814567 C1628.7806,31.898398 1628.91048,31.6307269 1629.1084,31.3784354 C1629.30632,31.1261439 1629.57226,31 1629.90625,31 L1631.09375,31 C1631.42774,31 1631.70605,31.1261439 1631.92871,31.3784354 C1632.15137,31.6307269 1632.29362,31.8922446 1632.35547,32.1629965 L1632.68945,33.7136585 C1632.875,33.775193 1633.05745,33.8428799 1633.23682,33.9167213 C1633.41618,33.9905627 1633.59245,34.0705564 1633.76562,34.1567047 L1635.10156,33.3075327 C1635.34896,33.147543 1635.63965,33.0583193 1635.97363,33.0398589 C1636.30762,33.0213986 1636.59212,33.1290823 1636.82715,33.3629135 L1637.66211,34.1936253 C1637.89714,34.4274564 1637.99609,34.7043576 1637.95898,35.024337 C1637.92187,35.3443165 1637.82292,35.627371 1637.66211,35.8735091 L1636.8457,37.2395684 C1636.93229,37.4118651 1637.01579,37.5872358 1637.09619,37.7656859 C1637.1766,37.944136 1637.24154,38.1318134 1637.29102,38.3287239 L1638.8125,38.6610086 Z M1638.8125,41.0054618 L1638.83105,39.9532269 C1638.81868,39.94092 1638.78776,39.9193832 1638.73828,39.888616 C1638.6888,39.8578487 1638.63314,39.836312 1638.57129,39.824005 L1636.36328,39.325578 L1636.15918,38.6794688 C1636.12207,38.531786 1636.07259,38.3841054 1636.01074,38.2364226 C1635.94889,38.0887397 1635.87467,37.9349057 1635.78809,37.774916 L1635.49121,37.1841876 L1636.66016,35.2458602 C1636.69727,35.1966326 1636.7251,35.1474057 1636.74365,35.0981781 C1636.76221,35.0489505 1636.77148,35.0120303 1636.77148,34.9874165 L1635.99219,34.2305458 C1635.95508,34.2305458 1635.91488,34.2366991 1635.87158,34.249006 C1635.82829,34.2613129 1635.78809,34.279773 1635.75098,34.3043868 L1633.83984,35.5227641 L1633.22754,35.2089396 C1633.0791,35.1350982 1632.93066,35.0643346 1632.78223,34.9966466 C1632.63379,34.9289587 1632.47917,34.8766551 1632.31836,34.8397344 L1631.66895,34.6182113 L1631.18652,32.3845196 C1631.17415,32.335292 1631.1556,32.2891418 1631.13086,32.2460677 L1631.09375,32.1814567 L1629.99902,32.1814567 C1629.97428,32.2060705 1629.94954,32.2429907 1629.9248,32.2922183 C1629.90006,32.3414459 1629.88151,32.4029795 1629.86914,32.4768209 L1629.33105,34.6182113 L1628.7002,34.8212742 C1628.53939,34.8705018 1628.37858,34.9289587 1628.21777,34.9966466 C1628.05697,35.0643346 1627.89616,35.1412516 1627.73535,35.2273999 L1627.12305,35.5412244 L1625.1377,34.2859266 L1625.04492,34.2397759 C1625.00781,34.2213156 1624.9707,34.2059322 1624.93359,34.1936253 L1624.1543,34.9689562 C1624.1543,35.005877 1624.16357,35.0489505 1624.18213,35.0981781 C1624.20068,35.1474057 1624.22852,35.2027859 1624.26562,35.2643204 L1625.47168,37.2580287 L1625.1748,37.8302968 C1625.10059,37.9902865 1625.03564,38.1379671 1624.97998,38.2733431 C1624.92432,38.408719 1624.87793,38.5440929 1624.84082,38.6794688 L1624.63672,39.325578 L1622.3916,39.824005 C1622.35449,39.836312 1622.31429,39.854772 1622.271,39.8793858 C1622.2277,39.9039996 1622.19987,39.9163064 1622.1875,39.9163064 L1622.1875,41.0054618 C1622.21224,41.0300756 1622.24935,41.0516124 1622.29883,41.0700727 C1622.34831,41.0885331 1622.41016,41.1039165 1622.48438,41.1162234 L1624.65527,41.6700312 L1624.85938,42.2976801 C1624.89648,42.4207491 1624.94287,42.546893 1624.99854,42.6761155 C1625.0542,42.8053379 1625.11914,42.9376352 1625.19336,43.0730111 L1625.47168,43.6452792 L1624.26562,45.6574477 C1624.22852,45.7066753 1624.20068,45.7559022 1624.18213,45.8051298 C1624.16357,45.8543574 1624.1543,45.8974309 1624.1543,45.9343516 L1624.93359,46.6912224 C1624.9707,46.6912224 1625.0109,46.6819923 1625.0542,46.663532 C1625.09749,46.6450716 1625.1377,46.6235349 1625.1748,46.5989211 L1627.12305,45.3620835 L1627.73535,45.675908 C1627.89616,45.7620563 1628.05697,45.8389733 1628.21777,45.9066612 C1628.37858,45.9743492 1628.53939,46.0328061 1628.7002,46.0820337 L1629.33105,46.2850966 L1629.8877,48.4634075 C1629.90007,48.524942 1629.91553,48.5772455 1629.93408,48.6203197 C1629.95264,48.6633939 1629.97428,48.6972373 1629.99902,48.7218511 L1631.0752,48.7218511 C1631.08757,48.7095442 1631.10921,48.6787774 1631.14014,48.6295498 C1631.17106,48.5803222 1631.19271,48.5310954 1631.20508,48.4818677 L1631.6875,46.2850966 L1632.33691,46.0635735 C1632.48535,46.0143459 1632.63379,45.9589656 1632.78223,45.8974311 C1632.93066,45.8358966 1633.0791,45.7682097 1633.22754,45.6943682 L1633.83984,45.3805438 L1635.78809,46.6173813 L1635.88086,46.663532 C1635.91797,46.6819923 1635.95508,46.6973757 1635.99219,46.7096826 L1636.77148,45.9343516 C1636.77148,45.8974309 1636.76221,45.8543574 1636.74365,45.8051298 C1636.7251,45.7559022 1636.69727,45.700522 1636.66016,45.6389875 L1635.49121,43.7191202 L1635.78809,43.1283919 C1635.86231,42.9930159 1635.92725,42.8545654 1635.98291,42.713036 C1636.03857,42.5715066 1636.09115,42.4269027 1636.14062,42.2792198 L1636.34473,41.6700312 L1638.55273,41.1162234 C1638.61458,41.1039165 1638.66715,41.0885331 1638.71045,41.0700727 C1638.75374,41.0516124 1638.78776,41.0300756 1638.8125,41.0054618 Z M1630.5,36.9072837 C1631.48959,36.9072837 1632.33382,37.2518718 1633.03271,37.9410584 C1633.73161,38.6302449 1634.08105,39.4671017 1634.08105,40.4516539 C1634.08105,41.4362062 1633.73161,42.273063 1633.03271,42.9622495 C1632.33382,43.6514361 1631.48959,43.9960242 1630.5,43.9960242 C1629.52278,43.9960242 1628.68474,43.6514361 1627.98584,42.9622495 C1627.28694,42.273063 1626.9375,41.4362062 1626.9375,40.4516539 C1626.9375,39.4671017 1627.28694,38.6302449 1627.98584,37.9410584 C1628.68474,37.2518718 1629.52278,36.9072837 1630.5,36.9072837 Z M1630.5,42.8145674 C1631.1556,42.8145674 1631.71533,42.5838165 1632.1792,42.1223076 C1632.64307,41.6607988 1632.875,41.1039198 1632.875,40.4516539 C1632.875,39.7993881 1632.64307,39.2425091 1632.1792,38.7810003 C1631.71533,38.3194914 1631.1556,38.0887405 1630.5,38.0887405 C1629.8444,38.0887405 1629.28467,38.3194914 1628.8208,38.7810003 C1628.35693,39.2425091 1628.125,39.7993881 1628.125,40.4516539 C1628.125,41.1039198 1628.35693,41.6607988 1628.8208,42.1223076 C1629.28467,42.5838165 1629.8444,42.8145674 1630.5,42.8145674 Z" id="Settings---simple-line-icons" transform="translate(1630.500000, 40.451654) scale(-1, 1) translate(-1630.500000, -40.451654) "></path>
                </g>
            </g>
        </g>
    </g>
</svg>